<svg xmlns="http://www.w3.org/2000/svg" xmlns:xlink="http://www.w3.org/1999/xlink" width="500" zoomAndPan="magnify" viewBox="0 0 375 374.999991" height="500" preserveAspectRatio="xMidYMid meet" version="1.0"><defs><clipPath id="id1"><path d="M 14.90625 22.75 L 178 22.75 L 178 179 L 14.90625 179 Z M 14.90625 22.75 " clip-rule="nonzero"/></clipPath><clipPath id="id2"><path d="M 14.90625 193 L 178 193 L 178 349 L 14.90625 349 Z M 14.90625 193 " clip-rule="nonzero"/></clipPath><clipPath id="id3"><path d="M 193 22.75 L 356.15625 22.75 L 356.15625 179 L 193 179 Z M 193 22.75 " clip-rule="nonzero"/></clipPath><clipPath id="id4"><path d="M 193 193 L 356.15625 193 L 356.15625 349 L 193 349 Z M 193 193 " clip-rule="nonzero"/></clipPath></defs><g clip-path="url(#id1)"><path fill="#347dc1" d="M 14.90625 38.285156 C 14.90625 29.707031 21.851562 22.75 30.417969 22.75 L 162.265625 22.75 C 170.832031 22.75 177.773438 29.707031 177.773438 38.285156 L 177.773438 162.570312 C 177.773438 171.152344 170.832031 178.109375 162.265625 178.109375 L 30.417969 178.109375 C 21.851562 178.109375 14.90625 171.152344 14.90625 162.570312 Z M 45.929688 53.824219 L 45.929688 147.035156 L 146.753906 147.035156 L 146.753906 53.824219 Z M 45.929688 53.824219 " fill-opacity="1" fill-rule="evenodd"/></g><g clip-path="url(#id2)"><path fill="#347dc1" d="M 14.90625 209.179688 C 14.90625 200.597656 21.851562 193.644531 30.417969 193.644531 L 162.265625 193.644531 C 170.832031 193.644531 177.773438 200.597656 177.773438 209.179688 L 177.773438 333.464844 C 177.773438 342.046875 170.832031 349 162.265625 349 L 30.417969 349 C 21.851562 349 14.90625 342.046875 14.90625 333.464844 Z M 45.929688 224.714844 L 45.929688 317.929688 L 146.753906 317.929688 L 146.753906 224.714844 Z M 45.929688 224.714844 " fill-opacity="1" fill-rule="evenodd"/></g><g clip-path="url(#id3)"><path fill="#347dc1" d="M 193.285156 38.285156 C 193.285156 29.707031 200.230469 22.75 208.796875 22.75 L 340.644531 22.75 C 349.210938 22.75 356.15625 29.707031 356.15625 38.285156 L 356.15625 162.570312 C 356.15625 171.152344 349.210938 178.109375 340.644531 178.109375 L 208.796875 178.109375 C 200.230469 178.109375 193.285156 171.152344 193.285156 162.570312 Z M 224.308594 53.824219 L 224.308594 147.035156 L 325.132812 147.035156 L 325.132812 53.824219 Z M 224.308594 53.824219 " fill-opacity="1" fill-rule="evenodd"/></g><g clip-path="url(#id4)"><path fill="#347dc1" d="M 193.285156 209.179688 C 193.285156 200.597656 200.230469 193.644531 208.796875 193.644531 L 340.644531 193.644531 C 349.210938 193.644531 356.15625 200.597656 356.15625 209.179688 L 356.15625 333.464844 C 356.15625 342.046875 349.210938 349 340.644531 349 L 208.796875 349 C 200.230469 349 193.285156 342.046875 193.285156 333.464844 Z M 224.308594 224.714844 L 224.308594 317.929688 L 325.132812 317.929688 L 325.132812 224.714844 Z M 224.308594 224.714844 " fill-opacity="1" fill-rule="evenodd"/></g></svg>